<svg width="10000" height="10000" viewBox="0 0 10000 10000" fill="none" xmlns="http://www.w3.org/2000/svg">
<g clip-path="url(#clip0_2117_606)">
<path d="M10000 320.328H0V336.997H10000V320.328Z" fill="#A0A3BD" fill-opacity="0.2"/>
<path d="M10000 679.672H0V696.341H10000V679.672Z" fill="#A0A3BD" fill-opacity="0.2"/>
<path d="M10000 1039H0V1055.67H10000V1039Z" fill="#A0A3BD" fill-opacity="0.2"/>
<path d="M10000 1398.34H0V1415.01H10000V1398.34Z" fill="#A0A3BD" fill-opacity="0.2"/>
<path d="M10000 1757.67H0V1774.34H10000V1757.67Z" fill="#A0A3BD" fill-opacity="0.2"/>
<path d="M10000 2117.02H0V2133.68H10000V2117.02Z" fill="#A0A3BD" fill-opacity="0.2"/>
<path d="M10000 2476.34H0V2493.01H10000V2476.34Z" fill="#A0A3BD" fill-opacity="0.2"/>
<path d="M10000 2835.69H0V2852.36H10000V2835.69Z" fill="#A0A3BD" fill-opacity="0.2"/>
<path d="M10000 3195.02H0V3211.68H10000V3195.02Z" fill="#A0A3BD" fill-opacity="0.2"/>
<path d="M10000 3554.36H0V3571.03H10000V3554.36Z" fill="#A0A3BD" fill-opacity="0.2"/>
<path d="M10000 3913.69H0V3930.36H10000V3913.69Z" fill="#A0A3BD" fill-opacity="0.2"/>
<path d="M10000 4273.03H0V4289.7H10000V4273.03Z" fill="#A0A3BD" fill-opacity="0.2"/>
<path d="M10000 4632.36H0V4649.03H10000V4632.36Z" fill="#A0A3BD" fill-opacity="0.2"/>
<path d="M10000 4991.7H0V5008.37H10000V4991.7Z" fill="#A0A3BD" fill-opacity="0.2"/>
<path d="M10000 5351.03H0V5367.7H10000V5351.03Z" fill="#A0A3BD" fill-opacity="0.2"/>
<path d="M10000 5710.38H0V5727.04H10000V5710.38Z" fill="#A0A3BD" fill-opacity="0.2"/>
<path d="M10000 6069.7H0V6086.37H10000V6069.7Z" fill="#A0A3BD" fill-opacity="0.2"/>
<path d="M10000 6429.05H0V6445.72H10000V6429.05Z" fill="#A0A3BD" fill-opacity="0.2"/>
<path d="M10000 6788.38H0V6805.04H10000V6788.38Z" fill="#A0A3BD" fill-opacity="0.2"/>
<path d="M10000 7147.72H0V7164.39H10000V7147.72Z" fill="#A0A3BD" fill-opacity="0.2"/>
<path d="M10000 7507.05H0V7523.72H10000V7507.05Z" fill="#A0A3BD" fill-opacity="0.2"/>
<path d="M10000 7866.39H0V7883.06H10000V7866.39Z" fill="#A0A3BD" fill-opacity="0.2"/>
<path d="M10000 8225.72H0V8242.39H10000V8225.72Z" fill="#A0A3BD" fill-opacity="0.2"/>
<path d="M10000 8585.06H0V8601.73H10000V8585.06Z" fill="#A0A3BD" fill-opacity="0.2"/>
<path d="M10000 8944.39H0V8961.06H10000V8944.39Z" fill="#A0A3BD" fill-opacity="0.2"/>
<path d="M10000 9303.73H0V9320.4H10000V9303.73Z" fill="#A0A3BD" fill-opacity="0.2"/>
<path d="M10000 9663.06H0V9679.73H10000V9663.06Z" fill="#A0A3BD" fill-opacity="0.2"/>
<path d="M10000 140.664H0V157.333H10000V140.664Z" fill="#A0A3BD" fill-opacity="0.2"/>
<path d="M10000 500H0V516.669H10000V500Z" fill="#A0A3BD" fill-opacity="0.2"/>
<path d="M10000 859.336H0V876.005H10000V859.336Z" fill="#A0A3BD" fill-opacity="0.2"/>
<path d="M10000 1218.67H0V1235.34H10000V1218.67Z" fill="#A0A3BD" fill-opacity="0.2"/>
<path d="M10000 1578.01H0V1594.68H10000V1578.01Z" fill="#A0A3BD" fill-opacity="0.2"/>
<path d="M10000 1937.34H0V1954.01H10000V1937.34Z" fill="#A0A3BD" fill-opacity="0.2"/>
<path d="M10000 2296.68H0V2313.35H10000V2296.68Z" fill="#A0A3BD" fill-opacity="0.2"/>
<path d="M10000 2656.02H0V2672.68H10000V2656.02Z" fill="#A0A3BD" fill-opacity="0.2"/>
<path d="M10000 3015.35H0V3032.02H10000V3015.35Z" fill="#A0A3BD" fill-opacity="0.2"/>
<path d="M10000 3374.69H0V3391.36H10000V3374.69Z" fill="#A0A3BD" fill-opacity="0.2"/>
<path d="M10000 3734.02H0V3750.69H10000V3734.02Z" fill="#A0A3BD" fill-opacity="0.2"/>
<path d="M10000 4093.36H0V4110.03H10000V4093.36Z" fill="#A0A3BD" fill-opacity="0.2"/>
<path d="M10000 4452.7H0V4469.36H10000V4452.7Z" fill="#A0A3BD" fill-opacity="0.2"/>
<path d="M10000 4812.03H0V4828.7H10000V4812.03Z" fill="#A0A3BD" fill-opacity="0.2"/>
<path d="M10000 5171.37H0V5188.04H10000V5171.37Z" fill="#A0A3BD" fill-opacity="0.2"/>
<path d="M10000 5530.7H0V5547.37H10000V5530.7Z" fill="#A0A3BD" fill-opacity="0.2"/>
<path d="M10000 5890.04H0V5906.71H10000V5890.04Z" fill="#A0A3BD" fill-opacity="0.2"/>
<path d="M10000 6249.38H0V6266.04H10000V6249.38Z" fill="#A0A3BD" fill-opacity="0.2"/>
<path d="M10000 6608.71H0V6625.38H10000V6608.71Z" fill="#A0A3BD" fill-opacity="0.2"/>
<path d="M10000 6968.05H0V6984.72H10000V6968.05Z" fill="#A0A3BD" fill-opacity="0.2"/>
<path d="M10000 7327.38H0V7344.05H10000V7327.38Z" fill="#A0A3BD" fill-opacity="0.2"/>
<path d="M10000 7686.72H0V7703.39H10000V7686.72Z" fill="#A0A3BD" fill-opacity="0.2"/>
<path d="M10000 8046.05H0V8062.72H10000V8046.05Z" fill="#A0A3BD" fill-opacity="0.2"/>
<path d="M10000 8405.39H0V8422.06H10000V8405.39Z" fill="#A0A3BD" fill-opacity="0.2"/>
<path d="M10000 8764.73H0V8781.4H10000V8764.73Z" fill="#A0A3BD" fill-opacity="0.2"/>
<path d="M10000 9124.06H0V9140.73H10000V9124.06Z" fill="#A0A3BD" fill-opacity="0.2"/>
<path d="M10000 9483.4H0V9500.07H10000V9483.4Z" fill="#A0A3BD" fill-opacity="0.2"/>
<path d="M10000 9842.73H0V9859.4H10000V9842.73Z" fill="#A0A3BD" fill-opacity="0.2"/>
<path d="M177.953 -23.6948L160.055 9976.29L176.723 9976.32L194.621 -23.665L177.953 -23.6948Z" fill="#A0A3BD" fill-opacity="0.2"/>
<path d="M577.086 -23.1011L559.188 9976.88L575.856 9976.91L593.754 -23.0713L577.086 -23.1011Z" fill="#A0A3BD" fill-opacity="0.2"/>
<path d="M976.218 -22.4995L958.32 9977.48L974.989 9977.51L992.887 -22.4697L976.218 -22.4995Z" fill="#A0A3BD" fill-opacity="0.2"/>
<path d="M1375.35 -21.898L1357.45 9978.09L1374.12 9978.12L1392.02 -21.8681L1375.35 -21.898Z" fill="#A0A3BD" fill-opacity="0.2"/>
<path d="M1774.48 -21.312L1756.59 9978.67L1773.25 9978.7L1791.15 -21.2822L1774.48 -21.312Z" fill="#A0A3BD" fill-opacity="0.2"/>
<path d="M2173.62 -20.7105L2155.72 9979.27L2172.39 9979.3L2190.29 -20.6806L2173.62 -20.7105Z" fill="#A0A3BD" fill-opacity="0.2"/>
<path d="M2572.75 -20.1089L2554.85 9979.88L2571.52 9979.9L2589.42 -20.0791L2572.75 -20.1089Z" fill="#A0A3BD" fill-opacity="0.2"/>
<path d="M2971.88 -19.5152L2953.98 9980.47L2970.65 9980.5L2988.55 -19.4853L2971.88 -19.5152Z" fill="#A0A3BD" fill-opacity="0.2"/>
<path d="M3371.02 -18.9214L3353.12 9981.06L3369.79 9981.09L3387.68 -18.8916L3371.02 -18.9214Z" fill="#A0A3BD" fill-opacity="0.2"/>
<path d="M3770.15 -18.3198L3752.25 9981.66L3768.92 9981.69L3786.82 -18.29L3770.15 -18.3198Z" fill="#A0A3BD" fill-opacity="0.2"/>
<path d="M4169.28 -17.7261L4151.38 9982.26L4168.05 9982.29L4185.95 -17.6963L4169.28 -17.7261Z" fill="#A0A3BD" fill-opacity="0.2"/>
<path d="M4568.41 -17.1323L4550.52 9982.85L4567.18 9982.88L4585.08 -17.1025L4568.41 -17.1323Z" fill="#A0A3BD" fill-opacity="0.2"/>
<path d="M4967.55 -16.5386L4949.65 9983.45L4966.32 9983.48L4984.22 -16.5088L4967.55 -16.5386Z" fill="#A0A3BD" fill-opacity="0.2"/>
<path d="M5366.68 -15.937L5348.78 9984.05L5365.45 9984.08L5383.35 -15.9072L5366.68 -15.937Z" fill="#A0A3BD" fill-opacity="0.2"/>
<path d="M5765.81 -15.3433L5747.91 9984.64L5764.58 9984.67L5782.48 -15.3134L5765.81 -15.3433Z" fill="#A0A3BD" fill-opacity="0.2"/>
<path d="M6164.95 -14.7417L6147.05 9985.24L6163.72 9985.27L6181.61 -14.7119L6164.95 -14.7417Z" fill="#A0A3BD" fill-opacity="0.2"/>
<path d="M6564.08 -14.148L6546.18 9985.84L6562.85 9985.87L6580.75 -14.1181L6564.08 -14.148Z" fill="#A0A3BD" fill-opacity="0.2"/>
<path d="M6963.21 -13.5464L6945.31 9986.44L6961.98 9986.47L6979.88 -13.5166L6963.21 -13.5464Z" fill="#A0A3BD" fill-opacity="0.2"/>
<path d="M7362.34 -12.9527L7344.45 9987.03L7361.11 9987.06L7379.01 -12.9228L7362.34 -12.9527Z" fill="#A0A3BD" fill-opacity="0.2"/>
<path d="M7761.48 -12.3589L7743.58 9987.62L7760.25 9987.65L7778.15 -12.3291L7761.48 -12.3589Z" fill="#A0A3BD" fill-opacity="0.2"/>
<path d="M8160.61 -11.7652L8142.71 9988.22L8159.38 9988.25L8177.28 -11.7353L8160.61 -11.7652Z" fill="#A0A3BD" fill-opacity="0.2"/>
<path d="M8559.74 -11.1636L8541.84 9988.82L8558.51 9988.85L8576.41 -11.1338L8559.74 -11.1636Z" fill="#A0A3BD" fill-opacity="0.2"/>
<path d="M8958.87 -10.5698L8940.98 9989.41L8957.64 9989.44L8975.54 -10.54L8958.87 -10.5698Z" fill="#A0A3BD" fill-opacity="0.2"/>
<path d="M9358.01 -9.97609L9340.11 9990.01L9356.78 9990.04L9374.68 -9.94626L9358.01 -9.97609Z" fill="#A0A3BD" fill-opacity="0.2"/>
<path d="M9757.14 -9.37453L9739.24 9990.61L9755.91 9990.64L9773.81 -9.3447L9757.14 -9.37453Z" fill="#A0A3BD" fill-opacity="0.2"/>
<path d="M377.519 -23.398L359.621 9976.59L376.29 9976.62L394.188 -23.3681L377.519 -23.398Z" fill="#A0A3BD" fill-opacity="0.2"/>
<path d="M776.652 -22.7964L758.754 9977.19L775.423 9977.22L793.321 -22.7666L776.652 -22.7964Z" fill="#A0A3BD" fill-opacity="0.2"/>
<path d="M1175.78 -22.2027L1157.89 9977.78L1174.56 9977.81L1192.45 -22.1728L1175.78 -22.2027Z" fill="#A0A3BD" fill-opacity="0.2"/>
<path d="M1574.92 -21.6089L1557.02 9978.38L1573.69 9978.4L1591.59 -21.5791L1574.92 -21.6089Z" fill="#A0A3BD" fill-opacity="0.2"/>
<path d="M1974.05 -21.0073L1956.15 9978.98L1972.82 9979.01L1990.72 -20.9775L1974.05 -21.0073Z" fill="#A0A3BD" fill-opacity="0.2"/>
<path d="M2373.18 -20.4136L2355.29 9979.57L2371.95 9979.6L2389.85 -20.3838L2373.18 -20.4136Z" fill="#A0A3BD" fill-opacity="0.2"/>
<path d="M2772.32 -19.812L2754.42 9980.17L2771.09 9980.2L2788.98 -19.7822L2772.32 -19.812Z" fill="#A0A3BD" fill-opacity="0.2"/>
<path d="M3171.45 -19.2183L3153.55 9980.77L3170.22 9980.8L3188.12 -19.1884L3171.45 -19.2183Z" fill="#A0A3BD" fill-opacity="0.2"/>
<path d="M3570.58 -18.6245L3552.68 9981.36L3569.35 9981.39L3587.25 -18.5947L3570.58 -18.6245Z" fill="#A0A3BD" fill-opacity="0.2"/>
<path d="M3969.71 -18.0308L3951.82 9981.95L3968.49 9981.98L3986.38 -18.0009L3969.71 -18.0308Z" fill="#A0A3BD" fill-opacity="0.2"/>
<path d="M4368.85 -17.4292L4350.95 9982.55L4367.62 9982.58L4385.52 -17.3994L4368.85 -17.4292Z" fill="#A0A3BD" fill-opacity="0.2"/>
<path d="M4767.98 -16.8277L4750.08 9983.16L4766.75 9983.19L4784.65 -16.7978L4767.98 -16.8277Z" fill="#A0A3BD" fill-opacity="0.2"/>
<path d="M5167.11 -16.2339L5149.21 9983.75L5165.88 9983.78L5183.78 -16.2041L5167.11 -16.2339Z" fill="#A0A3BD" fill-opacity="0.2"/>
<path d="M5566.25 -15.6402L5548.35 9984.34L5565.02 9984.37L5582.91 -15.6103L5566.25 -15.6402Z" fill="#A0A3BD" fill-opacity="0.2"/>
<path d="M5965.38 -15.0464L5947.48 9984.94L5964.15 9984.97L5982.05 -15.0166L5965.38 -15.0464Z" fill="#A0A3BD" fill-opacity="0.2"/>
<path d="M6364.51 -14.4448L6346.61 9985.54L6363.28 9985.57L6381.18 -14.415L6364.51 -14.4448Z" fill="#A0A3BD" fill-opacity="0.2"/>
<path d="M6763.64 -13.8511L6745.75 9986.13L6762.41 9986.16L6780.31 -13.8213L6763.64 -13.8511Z" fill="#A0A3BD" fill-opacity="0.2"/>
<path d="M7162.78 -13.2573L7144.88 9986.73L7161.55 9986.76L7179.45 -13.2275L7162.78 -13.2573Z" fill="#A0A3BD" fill-opacity="0.2"/>
<path d="M7561.91 -12.6558L7544.01 9987.33L7560.68 9987.36L7578.58 -12.6259L7561.91 -12.6558Z" fill="#A0A3BD" fill-opacity="0.2"/>
<path d="M7961.04 -12.0542L7943.14 9987.93L7959.81 9987.96L7977.71 -12.0244L7961.04 -12.0542Z" fill="#A0A3BD" fill-opacity="0.2"/>
<path d="M8360.18 -11.4683L8342.28 9988.52L8358.94 9988.55L8376.84 -11.4384L8360.18 -11.4683Z" fill="#A0A3BD" fill-opacity="0.2"/>
<path d="M8759.31 -10.8667L8741.41 9989.12L8758.08 9989.15L8775.98 -10.8369L8759.31 -10.8667Z" fill="#A0A3BD" fill-opacity="0.2"/>
<path d="M9158.44 -10.273L9140.54 9989.71L9157.21 9989.74L9175.11 -10.2431L9158.44 -10.273Z" fill="#A0A3BD" fill-opacity="0.2"/>
<path d="M9557.57 -9.67141L9539.68 9990.31L9556.34 9990.34L9574.24 -9.64157L9557.57 -9.67141Z" fill="#A0A3BD" fill-opacity="0.2"/>
</g>
<defs>
<clipPath id="clip0_2117_606">
<rect width="10000" height="10000" fill="white"/>
</clipPath>
</defs>
</svg>
