<svg width="32" height="32" viewBox="0 0 32 32" fill="none" xmlns="http://www.w3.org/2000/svg">
<path d="M26 2H9.25C9.1125 2 9 2.1125 9 2.25V4C9 4.1375 9.1125 4.25 9.25 4.25H24.75V25.75C24.75 25.8875 24.8625 26 25 26H26.75C26.8875 26 27 25.8875 27 25.75V3C27 2.44687 26.5531 2 26 2ZM22 6H6C5.44687 6 5 6.44687 5 7V23.5844C5 23.85 5.10625 24.1031 5.29375 24.2906L10.7094 29.7062C10.7781 29.775 10.8563 29.8312 10.9406 29.8781V29.9375H11.0719C11.1812 29.9781 11.2969 30 11.4156 30H22C22.5531 30 23 29.5531 23 29V7C23 6.44687 22.5531 6 22 6ZM11.9375 28H11.9312L7.25 23.3188V23.3125H11.9375V28Z" fill="rgb(0, 51, 153)"/>
</svg>
